PathFileType	4	(X/Y/Z)	/Users/itak/Documents/Research/Walk-IL/dataset/trc/00180_00008.trc
DataRate	CameraRate	NumFrames	NumMarkers	Units	OrigDataRate	OrigDataStartFrame	OrigNumFrames
100.000000	100.000000	4	53	mm	100.000000	82	663
Frame#	Time	RPSI			LPSI			L3			STRN			T10			C7			CLAV			RBAK			LBAK			LSHO			LUPA			LAEL			LAOL			LWTS			LWPS			LFRA			LIFD			LHPS			LHTS			RSHO			RUPA			RAEL			RAOL			RWTS			RWPS			RFRA			RIFD			RHTS			RHPS			RBHD			LFHD			RFHD			LBHD			LHIP			RHIP			RASI			LASI			LKNE			LTHI			LANK			LTIP			LTOE			LMT1			LMT5			LHEE			RKNE			RTHI			RANK			RTIP			RTOE			RMT1			RMT5			RHEE			
		X1	Y1	Z1	X2	Y2	Z2	X3	Y3	Z3	X4	Y4	Z4	X5	Y5	Z5	X6	Y6	Z6	X7	Y7	Z7	X8	Y8	Z8	X9	Y9	Z9	X10	Y10	Z10	X11	Y11	Z11	X12	Y12	Z12	X13	Y13	Z13	X14	Y14	Z14	X15	Y15	Z15	X16	Y16	Z16	X17	Y17	Z17	X18	Y18	Z18	X19	Y19	Z19	X20	Y20	Z20	X21	Y21	Z21	X22	Y22	Z22	X23	Y23	Z23	X24	Y24	Z24	X25	Y25	Z25	X26	Y26	Z26	X27	Y27	Z27	X28	Y28	Z28	X29	Y29	Z29	X30	Y30	Z30	X31	Y31	Z31	X32	Y32	Z32	X33	Y33	Z33	X34	Y34	Z34	X35	Y35	Z35	X36	Y36	Z36	X37	Y37	Z37	X38	Y38	Z38	X39	Y39	Z39	X40	Y40	Z40	X41	Y41	Z41	X42	Y42	Z42	X43	Y43	Z43	X44	Y44	Z44	X45	Y45	Z45	X46	Y46	Z46	X47	Y47	Z47	X48	Y48	Z48	X49	Y49	Z49	X50	Y50	Z50	X51	Y51	Z51	X52	Y52	Z52	X53	Y53	Z53	

83	0.8200000000000001	164.0921173095703	1019.407836914062	1352.66845703125	146.6576538085938	1014.208801269531	1232.196044921875	160.3233795166016	1054.779052734375	1295.748657226562	430.8218688964844	1239.291870117188	1237.336059570312	137.8182678222656	1212.19873046875	1294.203369140625	218.1949310302734	1474.70458984375	1247.408447265625	408.72021484375	1353.385620117188	1221.479125976562	159.8713989257812	1315.292358398438	1381.92529296875	188.4754791259766	1442.764770507812	1154.90087890625	245.3295745849609	1415.6708984375	1064.111083984375	173.3530731201172	1287.020141601562	1018.57666015625	132.8007354736328	1078.1416015625	1021.616943359375	123.5219497680664	1069.730102539062	1111.971923828125	184.4200286865234	824.6647338867188	1020.249633789062	91.28099822998047	827.93115234375	1025.144775390625	111.7881774902344	968.8112182617188	1013.319763183594	156.9386901855469	641.5179443359375	1046.809448242188	93.11720275878906	755.1685791015625	1024.654174804688	162.0849304199219	746.5731811523438	1004.554504394531	313.21142578125	1462.960693359375	1414.216796875	303.1644897460938	1405.018798828125	1492.984008789062	286.791015625	1126.986450195312	1585.19970703125	262.9700622558594	1104.840087890625	1493.872192382812	415.9093933105469	894.6629638671875	1572.151000976562	350.69921875	886.9376220703125	1632.685180664062	313.4601440429688	1057.101684570312	1608.045532226562	421.7966003417969	704.117431640625	1575.166748046875	440.1627197265625	801.0523681640625	1589.801147460938	376.3074035644531	805.2369384765625	1637.15673828125	329.0783996582031	1642.4228515625	1297.2529296875	399.4105834960938	1651.0390625	1090.866088867188	470.4304504394531	1664.762084960938	1197.810424804688	247.4849395751953	1635.253051757812	1186.403442382812	230.9559631347656	946.7622680664062	1100.18994140625	327.0125427246094	974.8355102539062	1460.537719726562	406.7086486816406	991.1980590820312	1398.422485351562	363.7776794433594	976.3928833007812	1144.180908203125	456.6264038085938	492.8495483398438	1080.761474609375	382.7300109863281	616.47119140625	1068.197265625	565.2056274414062	34.42652130126953	1083.6767578125	503.9959411621094	266.1171569824219	1070.052490234375	737.6396484375	107.50537109375	979.1036376953125	730.9503784179688	91.75491333007812	1044.444458007812	626.4906005859375	54.21053695678711	991.084716796875	563.9601440429688	30.16829490661621	1167.94970703125	198.0395812988281	498.4202270507812	1479.676147460938	329.3196105957031	743.4105224609375	1476.833374023438	-66.60333251953125	71.87818908691406	1536.722778320312	161.9145355224609	379.1741333007812	1476.823486328125	147.5967254638672	47.64452362060547	1490.11767578125	93.0576171875	49.97480392456055	1448.642333984375	42.65151214599609	40.26943588256836	1567.2861328125	-122.1768188476562	89.10089111328125	1471.257080078125	
84	0.8300000000000001	174.4083557128906	1020.176025390625	1346.63232421875	156.7792663574219	1014.942993164062	1226.066162109375	170.3742370605469	1055.342895507812	1289.724487304688	439.8349304199219	1240.619384765625	1230.300170898438	147.0339813232422	1211.992065429688	1287.830444335938	225.7605590820312	1474.94140625	1240.401733398438	416.9150390625	1354.440795898438	1214.289306640625	168.6024322509766	1315.30908203125	1375.307739257812	195.9821014404297	1442.653564453125	1148.093872070312	252.6721801757812	1415.559692382812	1057.154541015625	180.8260650634766	1286.512451171875	1012.404602050781	140.4966125488281	1077.73681640625	1016.60791015625	131.966796875	1069.491943359375	1106.829711914062	189.6681213378906	823.928466796875	1015.193603515625	96.61824798583984	828.2742309570312	1021.064208984375	118.4611892700195	968.7847290039062	1008.393005371094	160.2057800292969	641.1259155273438	1042.61767578125	97.6260986328125	755.5415649414062	1020.797302246094	166.2783508300781	745.9970092773438	999.9873657226562	321.1121520996094	1463.711059570312	1407.000732421875	311.4833068847656	1405.7578125	1485.849853515625	296.3252258300781	1127.764282226562	1578.161376953125	272.6206970214844	1105.491943359375	1486.865478515625	426.57958984375	896.1173706054688	1565.057250976562	361.3741760253906	887.9990844726562	1625.472045898438	323.29541015625	1057.9609375	1600.990600585938	433.6704406738281	705.6407470703125	1568.052734375	451.3895568847656	802.6801147460938	1582.705200195312	387.3981323242188	806.4125366210938	1629.955078125	336.2594299316406	1643.355590820312	1289.846435546875	406.0071411132812	1652.004150390625	1083.240112304688	477.298095703125	1666.167724609375	1189.873168945312	254.4391174316406	1635.783447265625	1179.239013671875	241.0816497802734	947.9020385742188	1094.047241210938	337.3304443359375	975.284423828125	1454.438232421875	417.1114196777344	991.8267211914062	1392.21337890625	374.1143493652344	976.9681396484375	1138.059692382812	463.5924072265625	492.1891174316406	1075.41455078125	390.9190368652344	616.6109619140625	1062.550048828125	566.2067260742188	33.9520263671875	1083.433837890625	509.1571655273438	264.8353271484375	1066.945434570312	739.65625	98.25953674316406	974.7296142578125	733.5732421875	84.15666961669922	1040.437622070312	626.7636108398438	49.58977890014648	989.7616577148438	566.196533203125	31.43229103088379	1167.818237304688	205.7679901123047	500.13134765625	1476.527954101562	338.4171447753906	744.2935791015625	1471.78173828125	-64.57283782958984	76.70249176025391	1537.040161132812	168.3841857910156	381.114990234375	1474.783203125	147.8991241455078	47.7816047668457	1490.180908203125	93.89942169189453	50.52201080322266	1448.7451171875	43.51700210571289	41.09651947021484	1566.95947265625	-119.5290451049805	96.07106781005859	1471.567260742188	
85	0.84	185.029541015625	1021.366088867188	1340.524047851562	166.9914093017578	1016.187255859375	1219.869384765625	180.6145477294922	1056.394653320312	1283.6357421875	448.9508361816406	1242.403930664062	1222.95263671875	156.3612670898438	1212.225341796875	1281.2861328125	233.4097747802734	1475.586791992188	1233.1943359375	425.1871032714844	1355.957153320312	1206.824462890625	177.4837493896484	1315.744750976562	1368.509765625	203.5446166992188	1443.00146484375	1141.093017578125	260.0516662597656	1415.934692382812	1049.984008789062	188.408935546875	1286.464599609375	1005.988403320312	148.4610900878906	1077.74462890625	1011.379089355469	140.6772766113281	1069.691284179688	1101.461791992188	195.4185791015625	823.6709594726562	1009.989013671875	102.476676940918	829.0209350585938	1016.789245605469	125.5153884887695	969.1756591796875	1003.249877929688	164.1145935058594	641.2145385742188	1038.382080078125	102.713623046875	756.3217163085938	1016.789672851562	171.0548095703125	745.8749389648438	995.3093872070312	329.1416320800781	1464.89111328125	1399.54931640625	319.9111633300781	1406.934204101562	1478.456298828125	305.86279296875	1128.98046875	1570.828491210938	282.3242797851562	1106.60986328125	1479.530395507812	437.1970825195312	897.96728515625	1557.633666992188	372.0124206542969	889.4693603515625	1617.942138671875	333.1160888671875	1059.240112304688	1593.634033203125	445.3890991210938	707.5526123046875	1560.545532226562	462.5146789550781	804.6785888671875	1575.234375	398.4283447265625	807.9959106445312	1622.42041015625	343.51416015625	1644.720092773438	1282.20751953125	412.70361328125	1653.3681640625	1075.388427734375	484.2590637207031	1667.975952148438	1181.71044921875	261.4782104492188	1636.756469726562	1171.830322265625	251.161376953125	949.6124267578125	1087.748291015625	348.0632019042969	976.056884765625	1448.069580078125	427.7853088378906	992.829833984375	1385.586547851562	384.4441223144531	978.0741577148438	1131.629150390625	470.44580078125	491.9491577148438	1070.011962890625	398.9926452636719	617.1942749023438	1056.773193359375	567.0139770507812	33.79574966430664	1083.345092773438	514.0809936523438	263.9222717285156	1063.8212890625	741.480712890625	89.41383361816406	970.969482421875	735.9122314453125	76.96873474121094	1036.986694335938	626.9266357421875	45.49251937866211	988.67578125	568.1906127929688	32.92446899414062	1167.755615234375	214.4181060791016	501.9411315917969	1473.1484375	348.1279907226562	745.3782348632812	1466.341430664062	-62.12443923950195	82.01116180419922	1537.277954101562	175.6528625488281	383.1874084472656	1472.602172851562	148.1442718505859	47.86067581176758	1490.194946289062	94.79745483398438	50.95616149902344	1448.749633789062	44.4854736328125	42.07872772216797	1566.608642578125	-116.2132568359375	103.6338500976562	1471.754028320312	
86	0.85	195.9338226318359	1022.947937011719	1334.370483398438	177.2526397705078	1017.892272949219	1213.658325195312	191.0230102539062	1057.897216796875	1277.511474609375	458.1314086914062	1244.616088867188	1215.292358398438	165.77880859375	1212.90234375	1274.611083984375	241.1413421630859	1476.632568359375	1225.812133789062	433.5169372558594	1357.9140625	1199.083374023438	186.5315704345703	1316.608520507812	1361.564697265625	211.1666564941406	1443.789306640625	1133.911254882812	267.4519958496094	1416.8046875	1042.619750976562	196.08544921875	1286.896728515625	999.3287963867188	156.6723937988281	1078.206298828125	1005.890319824219	149.6340179443359	1070.349487304688	1095.86572265625	201.6987762451172	823.906982421875	1004.624572753906	108.8838500976562	830.1678466796875	1012.29345703125	132.9604187011719	969.9929809570312	997.8916625976562	168.7249755859375	641.7864379882812	1034.100952148438	108.4161148071289	757.499267578125	1012.604248046875	176.4527893066406	746.213134765625	990.5121459960938	337.3356018066406	1466.506103515625	1391.873046875	328.4890747070312	1408.5654296875	1470.822387695312	315.3941650390625	1130.64111328125	1563.208740234375	292.081298828125	1108.210083007812	1471.8740234375	447.7537841796875	900.2108154296875	1549.888305664062	382.5957946777344	891.3501586914062	1610.10107421875	342.9123229980469	1060.943725585938	1585.986572265625	456.9404296875	709.8514404296875	1552.64306640625	473.5271606445312	807.0458984375	1567.39892578125	409.3848876953125	809.99365234375	1614.558227539062	350.8365173339844	1646.480712890625	1274.348388671875	419.4762573242188	1655.1171875	1067.316772460938	491.2943420410156	1670.161254882812	1173.33740234375	268.5859680175781	1638.13720703125	1164.193115234375	261.1447448730469	951.8482055664062	1081.3310546875	359.1978454589844	977.1625366210938	1441.439697265625	438.68701171875	994.218017578125	1378.544921875	394.7240600585938	979.7139892578125	1124.894653320312	477.2147827148438	492.1094970703125	1064.5908203125	406.97412109375	618.209716796875	1050.885375976562	567.7216796875	33.87681198120117	1083.285278320312	518.7506103515625	263.3500671386719	1060.673583984375	743.24267578125	81.31513214111328	968.00146484375	738.0323486328125	70.46746063232422	1034.264282226562	627.1680297851562	42.07752227783203	987.7871704101562	569.9016723632812	34.4700927734375	1167.639526367188	224.1009521484375	503.79931640625	1469.548583984375	358.4989013671875	746.6466674804688	1460.52978515625	-59.19425201416016	87.80071258544922	1537.373046875	183.8108215332031	385.3427124023438	1470.300170898438	148.3038940429688	47.89816284179688	1490.177734375	95.77400207519531	51.25844573974609	1448.66943359375	45.57490158081055	43.2396354675293	1566.245361328125	-112.1181488037109	111.7551803588867	1471.735961914062	
